<svg width="121" height="120" viewBox="0 0 121 120" fill="none" xmlns="http://www.w3.org/2000/svg">
<g clip-path="url(#clip0_448_22127)">
<path d="M119.401 4.32317V80.438C119.401 80.8465 119.356 81.2538 119.265 81.6522C119.229 81.8249 119.181 81.9976 119.129 82.1756C118.773 83.2632 118.094 84.2164 117.182 84.9076H117.151L116.408 85.3734H116.381L62.9392 119.22C62.866 119.267 62.798 119.314 62.7195 119.356H62.688C62.0653 119.722 61.3585 119.92 60.6364 119.932H60.3066C59.5846 119.92 58.8778 119.722 58.255 119.356H58.2236C58.1451 119.314 58.0771 119.267 58.0038 119.22L4.5617 85.3734L3.81854 84.9076H3.78711C3.09856 84.3857 2.54008 83.7116 2.15513 82.9381C1.77018 82.1645 1.56919 81.3125 1.56799 80.4484V4.32317C1.56907 3.56212 1.7708 2.8148 2.15283 2.15657C2.53487 1.49835 3.08375 0.952494 3.74405 0.574047C4.40434 0.195599 5.15279 -0.00205164 5.91384 0.00101163C6.67489 0.00407491 7.42168 0.207754 8.07891 0.591504L8.48179 0.858416L56.5488 32.9258L56.643 32.9938L57.0774 33.2817L57.1769 33.3497C58.2032 33.9465 59.3715 34.2557 60.5588 34.2446C61.746 34.2336 62.9082 33.9027 63.9233 33.2869C64.1012 33.1822 64.2739 33.0618 64.4466 32.9415L112.524 0.863655L112.927 0.596727C113.584 0.212977 114.331 0.00931379 115.092 0.00625052C115.853 0.00318725 116.602 0.200838 117.262 0.579286C117.922 0.957733 118.471 1.50359 118.853 2.16181C119.235 2.82004 119.437 3.56735 119.438 4.32841L119.401 4.32317Z" fill="#5F5CF0"/>
<path d="M119.401 28.9013V80.4383C119.401 80.8468 119.356 81.2541 119.265 81.6525C119.229 81.8252 119.181 81.998 119.129 82.1759C118.773 83.2635 118.094 84.2167 117.182 84.908H117.151L116.408 85.3737H116.381L62.9392 119.221C62.866 119.268 62.798 119.315 62.7195 119.357H62.688C62.0653 119.722 61.3585 119.921 60.6364 119.932H60.3066C59.5846 119.921 58.8778 119.722 58.255 119.357H58.2236C58.1451 119.315 58.0771 119.268 58.0038 119.221L4.5617 85.3737L3.81854 84.908H3.78711C3.09856 84.386 2.54008 83.7119 2.15513 82.9384C1.77018 82.1649 1.56919 81.3128 1.56799 80.4488V28.9013C1.56907 28.1403 1.7708 27.3929 2.15283 26.7347C2.53487 26.0765 3.08375 25.5306 3.74405 25.1522C4.40434 24.7737 5.15279 24.5761 5.91384 24.5791C6.67489 24.5822 7.42168 24.7859 8.07891 25.1696L8.48179 25.4366L56.5488 57.5039L56.643 57.5719L57.0774 57.8598L57.1769 57.9278C58.2032 58.5247 59.3715 58.8338 60.5588 58.8228C61.746 58.8117 62.9082 58.4808 63.9233 57.865C64.1012 57.7603 64.2739 57.64 64.4466 57.5196L112.524 25.4418L112.927 25.1749C113.584 24.7911 114.331 24.5874 115.092 24.5844C115.853 24.5813 116.602 24.779 117.262 25.1574C117.922 25.5359 118.471 26.0817 118.853 26.7399C119.235 27.3982 119.437 28.1455 119.438 28.9066L119.401 28.9013Z" fill="#7875FC"/>
<path d="M119.401 52.385V80.438C119.401 80.8466 119.356 81.2539 119.265 81.6522C119.229 81.825 119.181 81.9977 119.129 82.1756C118.773 83.2632 118.094 84.2164 117.182 84.9077H117.151L116.408 85.3734H116.381L62.9392 119.22C62.866 119.267 62.798 119.315 62.7195 119.356H62.688C62.0653 119.722 61.3585 119.92 60.6364 119.932H60.3066C59.5846 119.92 58.8778 119.722 58.255 119.356H58.2236C58.1451 119.315 58.0771 119.267 58.0038 119.22L4.5617 85.3734L3.81854 84.9077H3.78711C3.09856 84.3857 2.54008 83.7116 2.15513 82.9381C1.77018 82.1646 1.56919 81.3125 1.56799 80.4485V52.3955C1.56907 51.6344 1.7708 50.8871 2.15283 50.2289C2.53487 49.5706 3.08375 49.0248 3.74405 48.6463C4.40434 48.2679 5.15279 48.0702 5.91384 48.0733C6.67489 48.0763 7.42168 48.28 8.07891 48.6638L8.48179 48.9307L56.5488 80.998L56.643 81.0661L57.0774 81.3539L57.1769 81.422C58.2032 82.0188 59.3715 82.3279 60.5588 82.3169C61.746 82.3058 62.9082 81.975 63.9233 81.3591C64.1012 81.2545 64.2739 81.1341 64.4466 81.0137L112.524 48.9359L112.927 48.669C113.584 48.2853 114.331 48.0816 115.092 48.0785C115.853 48.0755 116.602 48.2731 117.262 48.6515C117.922 49.03 118.471 49.5758 118.853 50.2341C119.235 50.8923 119.437 51.6396 119.438 52.4007L119.401 52.385Z" fill="#9E9CFD"/>
</g>
<defs>
<clipPath id="clip0_448_22127">
<rect width="117.901" height="120" fill="white" transform="translate(1.5)"/>
</clipPath>
</defs>
</svg>
