<svg width="64" height="64" viewBox="0 0 64 64" fill="none" xmlns="http://www.w3.org/2000/svg">
<circle cx="32" cy="32" r="32" fill="#5F5CF0"/>
<path d="M40.4339 33.9337C40.3472 34.0226 40.0201 34.4029 39.7154 34.7157C37.9289 36.6829 33.2684 39.9029 30.8292 40.8858C30.4587 41.0437 29.5222 41.3779 29.0218 41.3994C28.5423 41.3994 28.0852 41.289 27.649 41.0651C27.1053 40.7524 26.6691 40.2602 26.4301 39.679C26.2763 39.2758 26.0373 38.069 26.0373 38.0476C25.7983 36.7274 25.6668 34.5823 25.6668 32.2118C25.6668 29.9532 25.7983 27.8955 25.994 26.5554C26.0164 26.5339 26.2554 25.0343 26.5168 24.5207C26.9963 23.5823 27.9328 22.9996 28.9351 22.9996L29.0218 22.9996C29.6745 23.0226 31.0473 23.6053 31.0473 23.6267C33.3551 24.6111 37.908 27.6732 39.7378 29.7079C39.7378 29.7079 40.2531 30.2307 40.4772 30.5573C40.8267 31.0265 41 31.6077 41 32.1888C41 32.8374 40.8043 33.4415 40.4339 33.9337Z" fill="white"/>
</svg>
